<svg width="450" height="450" viewBox="0 0 450 450" fill="none" xmlns="http://www.w3.org/2000/svg">
<rect width="450" height="450" fill="#EF7014"/>
<path fill-rule="evenodd" clip-rule="evenodd" d="M92.0572 360.038C115.233 390.435 148.114 407 184.289 407C216.914 407 245.862 394.363 268.652 371.053C290.673 348.596 304.057 318.796 309.487 288.058C311.754 275.335 313.507 260.99 314.191 248.225C324.71 255.782 338.008 266.412 347.201 274.993L385 226.665C363.886 207.644 340.809 190.915 316.158 176.757V43H253.302V149.818C244.663 147.608 235.895 145.939 227.048 144.823C143.667 134.278 89.3206 184.186 72.3452 238.32C59.2182 280.245 66.7865 326.865 92.0144 359.995M131.096 256.678C135.997 241.106 145.897 227.58 159.268 218.188C172.639 208.797 188.735 204.064 205.07 204.721C221.746 204.721 238.892 208.478 254.499 214.284C254.238 235.395 252.408 256.458 249.026 277.299C243.681 307.568 224.183 340.1 193.439 344.839C165.646 349.151 148.67 332.97 141.016 322.938C130.54 309.148 122.416 284.557 131.096 256.678Z" fill="white"/>
</svg>
