<svg width="158" height="12" viewBox="0 0 158 12" fill="none" xmlns="http://www.w3.org/2000/svg">
<path d="M3.21104 0.875138C5.06928 0.875138 6.40831 2.51934 6.42197 5.10497C6.40831 7.71713 5.06928 9.34807 3.21104 9.34807C1.33913 9.34807 -0.013561 7.71713 0.000102583 5.10497C-0.013561 2.51934 1.33913 0.875138 3.21104 0.875138ZM3.21104 2.20111C2.17261 2.20111 1.4621 3.27514 1.4621 5.10497C1.4621 6.94807 2.17261 8.0221 3.21104 8.0221C4.26313 8.0221 4.95997 6.94807 4.95997 5.10497C4.95997 3.27514 4.26313 2.20111 3.21104 2.20111ZM9.56459 0V4.60111H11.4638V5.84751H9.56459V11.9867H8.04794V0H9.56459Z" fill="#FAFAFA"/>
<path d="M21.9082 0V12H20.3779V0H21.9082ZM15.2541 0.875138C17.1123 0.875138 18.465 2.51934 18.4787 5.10497C18.465 7.71713 17.1123 9.34807 15.2541 9.34807C13.3822 9.34807 12.0295 7.71713 12.0295 5.10497C12.0295 2.51934 13.3822 0.875138 15.2541 0.875138ZM15.2541 2.20111C14.202 2.20111 13.4915 3.27514 13.4915 5.10497C13.4915 6.94807 14.202 8.0221 15.2541 8.0221C16.2925 8.0221 17.003 6.94807 17.003 5.10497C17.003 3.27514 16.2925 2.20111 15.2541 2.20111Z" fill="#FAFAFA"/>
<path d="M33.6507 0V12H32.1204V0H33.6507ZM30.0982 1.08729V2.29392H25.6712V7.86298C27.9462 7.85635 29.374 7.79006 31.0136 7.50497L31.1639 8.72486C29.4013 9.04309 27.8027 9.10939 25.193 9.10939H24.1409V1.08729H30.0982Z" fill="#FAFAFA"/>
<path d="M38.4931 0.875138C40.1669 0.875138 41.4034 2.22762 41.622 4.41547H43.9722V0H45.4752V12H43.9722V5.60884H41.6357C41.4717 7.92265 40.2147 9.34807 38.4931 9.34807C36.6348 9.34807 35.3231 7.71713 35.3231 5.10497C35.3231 2.51934 36.6348 0.875138 38.4931 0.875138ZM38.4931 2.20111C37.4683 2.20111 36.7715 3.27514 36.7851 5.10497C36.7715 6.94807 37.4683 8.0221 38.4931 8.0221C39.5178 8.0221 40.201 6.94807 40.2147 5.10497C40.201 3.27514 39.5178 2.20111 38.4931 2.20111Z" fill="#FAFAFA"/>
<path d="M53.2415 1.6442C53.2415 3.50055 55.1134 5.35691 57.6958 5.79448L57.0127 7.02762C54.9426 6.60331 53.2483 5.39006 52.449 3.77901C51.6292 5.3768 49.9349 6.59669 47.8717 7.02762L47.2022 5.79448C49.7573 5.34365 51.6156 3.48729 51.6292 1.6442V0.755801H53.2415V1.6442ZM58.1467 9.24199V10.4619H46.8606V9.24199H58.1467Z" fill="#FAFAFA"/>
<path d="M68.6048 3.39448V4.56133H60.0514V0.437569H61.5544V3.39448H68.6048ZM69.8755 5.95359V7.12044H58.5894V5.95359H69.8755ZM68.6868 10.5149V11.7083H59.9421V8.18122H61.4588V10.5149H68.6868Z" fill="#F1F1F1"/>
<path d="M83.6593 0.0132597V8.76464H82.1427V4.37569H79.9565V3.18232H82.1427V0.0132597H83.6593ZM83.9736 10.5547V11.7481H75.5568V7.99558H77.0735V10.5547H83.9736ZM77.8523 2.4C77.8523 3.8453 78.8497 5.33039 80.7626 5.94033L79.9975 7.12044C78.6175 6.66298 77.6405 5.7547 77.1008 4.61436C76.5543 5.88066 75.5227 6.88177 74.0675 7.37238L73.2887 6.17901C75.2562 5.5558 76.3083 3.9779 76.3083 2.38674V2.06851H73.7396V0.875138H80.4074V2.06851H77.8523V2.4Z" fill="#F1F1F1"/>
<path d="M95.6887 0V11.9867H94.2404V0H95.6887ZM93.1746 0.225414V11.4033H91.7399V5.37017H89.9637V4.1768H91.7399V0.225414H93.1746ZM88.8706 3.27514C88.8706 5.30387 89.6221 7.3326 91.3847 8.31381L90.4829 9.4011C89.342 8.73812 88.5837 7.59779 88.1601 6.23204C87.7229 7.7105 86.9372 8.97017 85.769 9.67956L84.8398 8.57901C86.6298 7.53149 87.4086 5.35691 87.4086 3.27514V2.47956H85.2634V1.28619H90.8655V2.47956H88.8706V3.27514Z" fill="#F1F1F1"/>
<path d="M108.06 5.67514V6.85525H103.168V8.00884H106.693V11.8409H98.1263V8.00884H101.665V6.85525H96.8009V5.67514H108.06ZM107.021 0.358011V1.53812H105.327V3.59337H106.953V4.78674H97.8803V3.59337H99.5063V1.53812H97.812V0.358011H107.021ZM99.6293 9.14917V10.6475H105.218V9.14917H99.6293ZM101.023 3.59337H103.797V1.53812H101.023V3.59337Z" fill="#F1F1F1"/>
<path d="M122.786 6.78895V7.98232H117.867V11.9735H116.364V7.98232H111.5V6.78895H122.786ZM121.406 0.609945V5.38343H112.88V0.609945H121.406ZM114.37 1.79006V4.22983H119.89V1.79006H114.37Z" fill="#EF7014"/>
<path d="M134.542 9.37459V10.5945H123.256V9.37459H126.249V7.3989H124.595V3.48729H131.7V2.01547H124.568V0.822099H133.203V4.6674H126.112V6.20552H133.49V7.3989H131.687V9.37459H134.542ZM127.724 9.37459H130.197V7.3989H127.724V9.37459Z" fill="#EF7014"/>
<path d="M136.816 1.10055V3.87182H138.825V1.10055H140.232V9.08287H135.381V1.10055H136.816ZM136.816 7.8895H138.825V5.03867H136.816V7.8895ZM145.656 0V11.9867H144.194V5.84751H142.883V11.4033H141.448V0.212155H142.883V4.62762H144.194V0H145.656Z" fill="#F1F1F1"/>
<path d="M153.108 4.22983V5.79448H158V6.97459H146.741V5.79448H151.605V4.22983H153.108ZM153.122 0.649724C153.122 2.10829 154.775 3.43425 157.358 3.75249L156.77 4.90608C154.741 4.60111 153.129 3.71271 152.343 2.45304C151.551 3.71271 149.939 4.60111 147.903 4.90608L147.356 3.75249C149.898 3.43425 151.578 2.08177 151.578 0.649724V0.198895H153.122V0.649724ZM152.357 7.75691C155.035 7.75691 156.62 8.51271 156.634 9.86519C156.62 11.2177 155.035 11.9735 152.357 11.9735C149.665 11.9735 148.053 11.2177 148.053 9.86519C148.053 8.51271 149.665 7.75691 152.357 7.75691ZM152.357 8.88398C150.54 8.88398 149.583 9.20221 149.597 9.86519C149.583 10.5282 150.54 10.8597 152.357 10.8597C154.133 10.8597 155.103 10.5282 155.117 9.86519C155.103 9.20221 154.133 8.88398 152.357 8.88398Z" fill="#F1F1F1"/>
</svg>
