<svg width="24" height="24" viewBox="0 0 24 24" fill="none" xmlns="http://www.w3.org/2000/svg">
<rect width="24" height="24" rx="12" fill="#EF7014" fill-opacity="0.08"/>
<path fill-rule="evenodd" clip-rule="evenodd" d="M18.4251 6.98847C18.376 6.32321 17.8207 5.79871 17.1429 5.79871H6.85714L6.76118 5.80224C6.09592 5.85132 5.57143 6.40662 5.57143 7.08443V17.8799L5.5766 17.9377C5.60382 18.0876 5.73506 18.2013 5.89285 18.2013C5.9781 18.2013 6.05986 18.1674 6.12014 18.1072L8.04871 16.1786L8.08731 16.1457C8.14183 16.1061 8.20779 16.0844 8.27599 16.0844H17.1429L17.2388 16.0809C17.9041 16.0318 18.4286 15.4765 18.4286 14.7987V7.08443L18.4251 6.98847ZM8.30357 10.9416C8.30357 10.4978 8.66334 10.138 9.10714 10.138C9.55094 10.138 9.91071 10.4978 9.91071 10.9416C9.91071 11.3854 9.55094 11.7451 9.10714 11.7451C8.66334 11.7451 8.30357 11.3854 8.30357 10.9416ZM11.1965 10.9416C11.1965 10.4978 11.5562 10.138 12 10.138C12.4438 10.138 12.8036 10.5333 12.8036 10.9771C12.8036 11.4209 12.4438 11.7451 12 11.7451C11.5562 11.7451 11.1965 11.3854 11.1965 10.9416ZM14.0893 10.9416C14.0893 10.4978 14.4491 10.138 14.8929 10.138C15.3367 10.138 15.6965 10.4978 15.6965 10.9416C15.6965 11.3854 15.3367 11.7451 14.8929 11.7451C14.4491 11.7451 14.0893 11.3854 14.0893 10.9416Z" fill="#EF7014"/>
</svg>
