<svg width="24" height="24" viewBox="0 0 24 24" fill="none" xmlns="http://www.w3.org/2000/svg">
<mask id="path-1-inside-1_3230_622" fill="white">
<path fill-rule="evenodd" clip-rule="evenodd" d="M12 2.40002L21.6 9.60002V21.6H2.39999V9.60002L12 2.40002ZM15.6 16.8V15.6H8.39999V16.8H15.6Z"/>
</mask>
<path d="M21.6 9.60002H22.8V9.00002L22.32 8.64002L21.6 9.60002ZM12 2.40002L12.72 1.44002L12 0.900024L11.28 1.44002L12 2.40002ZM21.6 21.6V22.8H22.8V21.6H21.6ZM2.39999 21.6H1.19999V22.8H2.39999V21.6ZM2.39999 9.60002L1.67999 8.64002L1.19999 9.00002V9.60002H2.39999ZM15.6 15.6H16.8V14.4H15.6V15.6ZM15.6 16.8V18H16.8V16.8H15.6ZM8.39999 15.6V14.4H7.19999V15.6H8.39999ZM8.39999 16.8H7.19999V18H8.39999V16.8ZM21.6 9.60002L22.32 8.64002L12.72 1.44002L12 2.40002L11.28 3.36002L20.88 10.56L21.6 9.60002ZM21.6 21.6H22.8V9.60002H21.6H20.4V21.6H21.6ZM2.39999 21.6V22.8H21.6V21.6V20.4H2.39999V21.6ZM2.39999 9.60002H1.19999V21.6H2.39999H3.59999V9.60002H2.39999ZM12 2.40002L11.28 1.44002L1.67999 8.64002L2.39999 9.60002L3.11999 10.56L12.72 3.36002L12 2.40002ZM15.6 15.6H14.4V16.8H15.6H16.8V15.6H15.6ZM8.39999 15.6V16.8H15.6V15.6V14.4H8.39999V15.6ZM8.39999 16.8H9.59999V15.6H8.39999H7.19999V16.8H8.39999ZM15.6 16.8V15.6H8.39999V16.8V18H15.6V16.8Z" fill="#121212" mask="url(#path-1-inside-1_3230_622)"/>
</svg>
