<svg width="16" height="16" viewBox="0 0 16 16" fill="none" xmlns="http://www.w3.org/2000/svg">
<path d="M8 0C12.4183 0 16 3.58172 16 8C16 12.4183 12.4183 16 8 16C3.58172 16 0 12.4183 0 8C0 3.58172 3.58172 0 8 0Z" fill="#6F00FF"/>
<path d="M9.61426 8.67943H11.4853C11.2579 10.3174 9.86373 11.5 8.02201 11.5C5.93816 11.5 4.5 9.97954 4.5 7.99633C4.5 6.02046 5.93816 4.5 8.02201 4.5C9.90042 4.5 11.3092 5.734 11.5 7.41605H9.62893C9.50419 6.58604 8.90985 5.98374 8.02201 5.98374C6.9434 5.98374 6.23166 6.87251 6.23166 7.99633C6.23166 9.12749 6.9434 10.0163 8.02201 10.0163C8.86583 10.0163 9.46017 9.46537 9.61426 8.67943Z" fill="white"/>
</svg>
