<svg width="24" height="24" viewBox="0 0 24 24" fill="none" xmlns="http://www.w3.org/2000/svg">
<path d="M17.9756 7.85549C17.9799 7.74476 17.9619 7.63429 17.9225 7.5307C17.8832 7.42711 17.8233 7.33254 17.7465 7.25265C17.6697 7.17276 17.5776 7.10921 17.4756 7.06579C17.3736 7.02238 17.264 7 17.1532 7C17.0423 7 16.9327 7.02238 16.8307 7.06579C16.7288 7.10921 16.6366 7.17276 16.5598 7.25265C16.483 7.33254 16.4231 7.42711 16.3838 7.5307C16.3444 7.63429 16.3264 7.74476 16.3308 7.85549V9.79213H14.3941C14.2834 9.78776 14.1729 9.8058 14.0693 9.84516C13.9657 9.88452 13.8712 9.94439 13.7913 10.0212C13.7114 10.098 13.6478 10.1901 13.6044 10.2921C13.561 10.394 13.5386 10.5037 13.5386 10.6145C13.5386 10.7253 13.561 10.835 13.6044 10.937C13.6478 11.0389 13.7114 11.1311 13.7913 11.2079C13.8712 11.2847 13.9657 11.3445 14.0693 11.3839C14.1729 11.4233 14.2834 11.4413 14.3941 11.4369H16.3308V13.3749C16.3264 13.4856 16.3444 13.5961 16.3838 13.6996C16.4231 13.8032 16.483 13.8978 16.5598 13.9777C16.6366 14.0576 16.7288 14.1211 16.8307 14.1645C16.9327 14.208 17.0423 14.2303 17.1532 14.2303C17.264 14.2303 17.3736 14.208 17.4756 14.1645C17.5776 14.1211 17.6697 14.0576 17.7465 13.9777C17.8233 13.8978 17.8832 13.8032 17.9225 13.6996C17.9619 13.5961 17.9799 13.4856 17.9756 13.3749V7.85549Z" fill="#121212"/>
<path fill-rule="evenodd" clip-rule="evenodd" d="M4.78003 16.5775C5.47379 17.4889 6.45811 17.9855 7.54099 17.9855C8.51762 17.9855 9.38418 17.6067 10.0664 16.9078C10.7256 16.2345 11.1263 15.3411 11.2888 14.4195C11.3567 14.038 11.4091 13.6079 11.4296 13.2252C11.7445 13.4518 12.1426 13.7705 12.4178 14.0278L13.5493 12.5788C12.9172 12.0086 12.2264 11.507 11.4885 11.0825V7.07227H9.60691V10.2748C9.34831 10.2086 9.08583 10.1585 8.82098 10.1251C6.32499 9.80891 4.69811 11.3052 4.18995 12.9283C3.79699 14.1852 4.02355 15.583 4.77875 16.5763M5.94867 13.4787C6.09536 13.0118 6.39174 12.6062 6.79199 12.3247C7.19225 12.0431 7.67409 11.9012 8.16306 11.9209C8.66227 11.9209 9.17555 12.0335 9.64275 12.2076C9.63492 12.8406 9.58016 13.4721 9.4789 14.0969C9.3189 15.0044 8.73523 15.9798 7.81491 16.1219C6.98291 16.2511 6.47475 15.766 6.24563 15.4652C5.93203 15.0518 5.68883 14.3145 5.94867 13.4787Z" fill="#121212"/>
<path d="M19.9121 11.4369C20.0228 11.4413 20.1333 11.4233 20.2369 11.3839C20.3405 11.3446 20.435 11.2847 20.5149 11.2079C20.5948 11.1311 20.6584 11.0389 20.7018 10.937C20.7452 10.835 20.7676 10.7254 20.7676 10.6145C20.7676 10.5037 20.7452 10.3941 20.7018 10.2921C20.6584 10.1901 20.5948 10.098 20.5149 10.0212C20.435 9.94441 20.3405 9.88453 20.2369 9.84517C20.1333 9.80581 20.0228 9.78777 19.9121 9.79214H18.6897C18.6844 9.79179 18.6792 9.79253 18.6742 9.7943C18.6693 9.79607 18.6647 9.79884 18.6609 9.80244C18.657 9.80605 18.654 9.8104 18.6519 9.81523C18.6498 9.82007 18.6487 9.82528 18.6487 9.83054V11.3973C18.6487 11.419 18.6667 11.4369 18.6897 11.4369H19.9121Z" fill="#121212"/>
</svg>
