<svg width="24" height="24" viewBox="0 0 24 24" fill="none" xmlns="http://www.w3.org/2000/svg">
<path d="M18 3C19.6569 3 21 4.34315 21 6C21 7.65685 19.6569 9 18 9C16.9504 9 16.0283 8.4599 15.4922 7.64355L8.87109 10.7588C8.95377 11.0332 9 11.3236 9 11.625C9 11.9805 8.93477 12.3203 8.82129 12.6367L15.5879 16.2197C16.1343 15.4806 17.0103 15 18 15C19.6569 15 21 16.3431 21 18C21 19.6569 19.6569 21 18 21C16.3431 21 15 19.6569 15 18C15 17.7622 15.0297 17.5314 15.082 17.3096L8.19629 13.6631C7.64844 14.2532 6.86872 14.625 6 14.625C4.34315 14.625 3 13.2819 3 11.625C3 9.96815 4.34315 8.625 6 8.625C6.92443 8.625 7.75047 9.04373 8.30078 9.70117L15.0459 6.52734C15.0155 6.35616 15 6.1799 15 6C15 4.34315 16.3431 3 18 3ZM18 16.2002C17.0059 16.2002 16.2002 17.0059 16.2002 18C16.2002 18.9941 17.0059 19.7998 18 19.7998C18.9941 19.7998 19.7998 18.9941 19.7998 18C19.7998 17.0059 18.9941 16.2002 18 16.2002ZM6 9.8252C5.00589 9.8252 4.2002 10.6309 4.2002 11.625C4.2002 12.6191 5.00589 13.4248 6 13.4248C6.99411 13.4248 7.7998 12.6191 7.7998 11.625C7.7998 10.6309 6.99411 9.8252 6 9.8252ZM18 4.2002C17.0059 4.2002 16.2002 5.00589 16.2002 6C16.2002 6.99411 17.0059 7.7998 18 7.7998C18.9941 7.7998 19.7998 6.99411 19.7998 6C19.7998 5.00589 18.9941 4.2002 18 4.2002Z" fill="#121212"/>
</svg>
