<svg width="24" height="24" viewBox="0 0 24 24" fill="none" xmlns="http://www.w3.org/2000/svg">
<path d="M8.5 17.5996C9.88071 17.5996 11 18.7189 11 20.0996C11 21.4803 9.88071 22.5996 8.5 22.5996C7.11929 22.5996 6 21.4803 6 20.0996C6 18.7189 7.11929 17.5996 8.5 17.5996ZM17.5 17.5996C18.8807 17.5996 20 18.7189 20 20.0996C20 21.4803 18.8807 22.5996 17.5 22.5996C16.1193 22.5996 15 21.4803 15 20.0996C15 18.7189 16.1193 17.5996 17.5 17.5996ZM17.5 18.7998C16.782 18.7998 16.2002 19.3816 16.2002 20.0996C16.2002 20.8176 16.782 21.3994 17.5 21.3994C18.218 21.3994 18.7998 20.8176 18.7998 20.0996C18.7998 19.3816 18.218 18.7998 17.5 18.7998ZM8.5 18.7998C7.78203 18.7998 7.2002 19.3816 7.2002 20.0996C7.2002 20.8176 7.78203 21.3994 8.5 21.3994C9.21797 21.3994 9.7998 20.8176 9.7998 20.0996C9.7998 19.3816 9.21797 18.7998 8.5 18.7998ZM5.08691 3.47754L5.5957 5.9209L21.0029 6L21.7881 6.00391L18.9561 16.1992H6.51172L6.41309 15.7217L4.52051 6.6416L4.0127 4.19922H2V3H4.98828L5.08691 3.47754ZM7.4873 15H18.0439L20.2119 7.19434L5.8457 7.12207L7.4873 15Z" fill="#121212"/>
</svg>
