<svg width="24" height="24" viewBox="0 0 24 24" fill="none" xmlns="http://www.w3.org/2000/svg">
<mask id="path-1-inside-1_3139_845" fill="white">
<path d="M13.6685 4.16638C15.951 1.9394 19.6075 1.98449 21.8345 4.26697C24.061 6.54944 24.0161 10.2051 21.7339 12.432L16.0327 17.9945L12.0005 21.9291L7.96827 17.9945L2.2671 12.432C-0.0153704 10.205 -0.0604354 6.54947 2.16651 4.26697C4.39351 1.98453 8.04906 1.93944 10.3316 4.16638L11.9995 5.79529L13.6685 4.16638Z"/>
</mask>
<path d="M13.6685 4.16638C15.951 1.9394 19.6075 1.98449 21.8345 4.26697C24.061 6.54944 24.0161 10.2051 21.7339 12.432L16.0327 17.9945L12.0005 21.9291L7.96827 17.9945L2.2671 12.432C-0.0153704 10.205 -0.0604354 6.54947 2.16651 4.26697C4.39351 1.98453 8.04906 1.93944 10.3316 4.16638L11.9995 5.79529L13.6685 4.16638Z" fill="#FDFDFD"/>
<path d="M13.6685 4.16638L12.9701 3.45063L12.97 3.45074L13.6685 4.16638ZM21.8345 4.26697L22.5503 3.56869L22.5502 3.56861L21.8345 4.26697ZM21.7339 12.432L22.4322 13.1478L22.4323 13.1477L21.7339 12.432ZM16.0327 17.9945L15.3344 17.2787L15.3343 17.2788L16.0327 17.9945ZM12.0005 21.9291L11.3021 22.6448L12.0005 23.3263L12.6989 22.6448L12.0005 21.9291ZM7.96827 17.9945L8.66666 17.2788L8.66662 17.2787L7.96827 17.9945ZM2.2671 12.432L1.56874 13.1478L1.56875 13.1478L2.2671 12.432ZM2.16651 4.26697L1.45077 3.56861L1.45075 3.56862L2.16651 4.26697ZM10.3316 4.16638L11.0302 3.45095L11.0299 3.45062L10.3316 4.16638ZM11.9995 5.79529L11.3008 6.51072L11.9993 7.19284L12.698 6.51093L11.9995 5.79529ZM13.6685 4.16638L14.3668 4.88214C16.254 3.04086 19.2774 3.07812 21.1187 4.96532L21.8345 4.26697L22.5502 3.56861C19.9376 0.890857 15.6479 0.837931 12.9701 3.45063L13.6685 4.16638ZM21.8345 4.26697L21.1187 4.96525C22.9596 6.85245 22.9224 9.8751 21.0355 11.7163L21.7339 12.432L22.4323 13.1477C25.1097 10.5351 25.1624 6.24642 22.5503 3.56869L21.8345 4.26697ZM21.7339 12.432L21.0355 11.7162L15.3344 17.2787L16.0327 17.9945L16.7311 18.7103L22.4322 13.1478L21.7339 12.432ZM16.0327 17.9945L15.3343 17.2788L11.3021 21.2134L12.0005 21.9291L12.6989 22.6448L16.7311 18.7102L16.0327 17.9945ZM12.0005 21.9291L12.6989 21.2134L8.66666 17.2788L7.96827 17.9945L7.26988 18.7102L11.3021 22.6448L12.0005 21.9291ZM7.96827 17.9945L8.66662 17.2787L2.96545 11.7162L2.2671 12.432L1.56875 13.1478L7.26992 18.7103L7.96827 17.9945ZM2.2671 12.432L2.96545 11.7163C1.07826 9.87493 1.04102 6.85249 2.88227 4.96531L2.16651 4.26697L1.45075 3.56862C-1.16189 6.24644 -1.109 10.5351 1.56874 13.1478L2.2671 12.432ZM2.16651 4.26697L2.88226 4.96533C4.72359 3.07815 7.74604 3.04091 9.63321 4.88214L10.3316 4.16638L11.0299 3.45062C8.35208 0.837981 4.06343 0.890902 1.45077 3.56861L2.16651 4.26697ZM10.3316 4.16638L9.63287 4.88182L11.3008 6.51072L11.9995 5.79529L12.6982 5.07985L11.0302 3.45095L10.3316 4.16638ZM11.9995 5.79529L12.698 6.51093L14.3669 4.88202L13.6685 4.16638L12.97 3.45074L11.301 5.07965L11.9995 5.79529Z" fill="#D9D9D9" mask="url(#path-1-inside-1_3139_845)"/>
</svg>
