<svg width="24" height="24" viewBox="0 0 24 24" fill="none" xmlns="http://www.w3.org/2000/svg">
<mask id="path-1-inside-1_3166_129" fill="white">
<path d="M12.2437 5.09143C14.5261 2.86468 18.1817 2.90974 20.4087 5.19202C22.6355 7.4745 22.5905 11.1301 20.3081 13.3571L16.0327 17.5289L11.9995 21.4635L7.96729 17.5289L3.69189 13.3571C1.40959 11.1301 1.36448 7.47447 3.59131 5.19202C5.81826 2.9096 9.47384 2.86463 11.7563 5.09143L11.9995 5.32971L12.2437 5.09143Z"/>
</mask>
<path d="M12.2437 5.09143C14.5261 2.86468 18.1817 2.90974 20.4087 5.19202C22.6355 7.4745 22.5905 11.1301 20.3081 13.3571L16.0327 17.5289L11.9995 21.4635L7.96729 17.5289L3.69189 13.3571C1.40959 11.1301 1.36448 7.47447 3.59131 5.19202C5.81826 2.9096 9.47384 2.86463 11.7563 5.09143L11.9995 5.32971L12.2437 5.09143Z" fill="#FDFDFD"/>
<path d="M12.2437 5.09143L11.5453 4.37564L11.5452 4.37579L12.2437 5.09143ZM20.4087 5.19202L21.1245 4.4937L21.1244 4.49364L20.4087 5.19202ZM20.3081 13.3571L19.6097 12.6413L19.6097 12.6413L20.3081 13.3571ZM16.0327 17.5289L16.731 18.2447L16.7311 18.2446L16.0327 17.5289ZM11.9995 21.4635L11.3011 22.1792L11.9994 22.8606L12.6978 22.1793L11.9995 21.4635ZM7.96729 17.5289L7.2689 18.2446L7.2689 18.2447L7.96729 17.5289ZM3.69189 13.3571L4.39028 12.6413L4.39027 12.6413L3.69189 13.3571ZM3.59131 5.19202L2.87556 4.49366L2.87553 4.49368L3.59131 5.19202ZM11.7563 5.09143L12.4562 4.37719L12.4547 4.37564L11.7563 5.09143ZM11.9995 5.32971L11.2996 6.04395L11.9981 6.72843L12.698 6.04535L11.9995 5.32971ZM12.2437 5.09143L12.942 5.80722C14.8291 3.96613 17.8517 4.00337 19.693 5.8904L20.4087 5.19202L21.1244 4.49364C18.5118 1.81611 14.2231 1.76323 11.5453 4.37564L12.2437 5.09143ZM20.4087 5.19202L19.6929 5.89034C21.534 7.77752 21.4968 10.8 19.6097 12.6413L20.3081 13.3571L21.0065 14.0728C23.6841 11.4602 23.7369 7.17148 21.1245 4.4937L20.4087 5.19202ZM20.3081 13.3571L19.6097 12.6413L15.3343 16.8132L16.0327 17.5289L16.7311 18.2446L21.0065 14.0728L20.3081 13.3571ZM16.0327 17.5289L15.3344 16.8131L11.3012 20.7477L11.9995 21.4635L12.6978 22.1793L16.731 18.2447L16.0327 17.5289ZM11.9995 21.4635L12.6979 20.7478L8.66567 16.8132L7.96729 17.5289L7.2689 18.2447L11.3011 22.1792L11.9995 21.4635ZM7.96729 17.5289L8.66567 16.8132L4.39028 12.6413L3.69189 13.3571L2.99351 14.0728L7.2689 18.2446L7.96729 17.5289ZM3.69189 13.3571L4.39027 12.6413C2.5032 10.8 2.46594 7.77748 4.30708 5.89035L3.59131 5.19202L2.87553 4.49368C0.263008 7.17147 0.315978 11.4601 2.99351 14.0728L3.69189 13.3571ZM3.59131 5.19202L4.30706 5.89037C6.14831 4.00325 9.17081 3.96605 11.058 5.80722L11.7563 5.09143L12.4547 4.37564C9.77687 1.7632 5.4882 1.81594 2.87556 4.49366L3.59131 5.19202ZM11.7563 5.09143L11.0564 5.80567L11.2996 6.04395L11.9995 5.32971L12.6994 4.61547L12.4562 4.37719L11.7563 5.09143ZM11.9995 5.32971L12.698 6.04535L12.9421 5.80707L12.2437 5.09143L11.5452 4.37579L11.301 4.61407L11.9995 5.32971Z" fill="#D9D9D9" mask="url(#path-1-inside-1_3166_129)"/>
</svg>
